M48
; DRILL file {KiCad (5.1.8)-1} date 12/04/20 14:17:13
; FORMAT={-:-/ absolute / inch / decimal}
; #@! TF.CreationDate,2020-12-04T14:17:13-08:00
; #@! TF.GenerationSoftware,Kicad,Pcbnew,(5.1.8)-1
; #@! TF.FileFunction,Plated,1,2,PTH
FMAT,2
INCH
T1C0.0315
T2C0.0320
T3C0.0354
T4C0.0394
%
G90
G05
T1
X3.9Y-3.175
X4.125Y-3.175
X4.125Y-3.275
X3.7Y-3.175
X3.7Y-3.475
X3.9Y-3.475
X4.125Y-3.375
T2
X3.25Y-3.075
X3.25Y-3.175
X3.25Y-3.275
X3.25Y-3.375
X3.55Y-3.075
X3.55Y-3.175
X3.55Y-3.275
X3.55Y-3.375
T3
X3.9Y-2.925
X3.9Y-3.025
X3.7Y-2.92
X3.7Y-3.02
T4
X3.1Y-3.175
X3.1Y-3.275
X3.1Y-3.375
T0
M30
