%TF.GenerationSoftware,KiCad,Pcbnew,(5.1.8)-1*%
%TF.CreationDate,2020-12-04T14:16:00-08:00*%
%TF.ProjectId,Tachometer,54616368-6f6d-4657-9465-722e6b696361,rev?*%
%TF.SameCoordinates,Original*%
%TF.FileFunction,Legend,Top*%
%TF.FilePolarity,Positive*%
%FSLAX46Y46*%
G04 Gerber Fmt 4.6, Leading zero omitted, Abs format (unit mm)*
G04 Created by KiCad (PCBNEW (5.1.8)-1) date 2020-12-04 14:16:00*
%MOMM*%
%LPD*%
G01*
G04 APERTURE LIST*
%ADD10C,0.200000*%
%ADD11C,0.120000*%
%ADD12C,0.152400*%
%ADD13C,0.150000*%
G04 APERTURE END LIST*
D10*
X84178095Y-92947380D02*
X84178095Y-91947380D01*
X85225714Y-92947380D02*
X84892380Y-92471190D01*
X84654285Y-92947380D02*
X84654285Y-91947380D01*
X85035238Y-91947380D01*
X85130476Y-91995000D01*
X85178095Y-92042619D01*
X85225714Y-92137857D01*
X85225714Y-92280714D01*
X85178095Y-92375952D01*
X85130476Y-92423571D01*
X85035238Y-92471190D01*
X84654285Y-92471190D01*
X86416190Y-92947380D02*
X86416190Y-91947380D01*
X86797142Y-91947380D01*
X86892380Y-91995000D01*
X86940000Y-92042619D01*
X86987619Y-92137857D01*
X86987619Y-92280714D01*
X86940000Y-92375952D01*
X86892380Y-92423571D01*
X86797142Y-92471190D01*
X86416190Y-92471190D01*
X87416190Y-92947380D02*
X87416190Y-92280714D01*
X87416190Y-92471190D02*
X87463809Y-92375952D01*
X87511428Y-92328333D01*
X87606666Y-92280714D01*
X87701904Y-92280714D01*
X88178095Y-92947380D02*
X88082857Y-92899761D01*
X88035238Y-92852142D01*
X87987619Y-92756904D01*
X87987619Y-92471190D01*
X88035238Y-92375952D01*
X88082857Y-92328333D01*
X88178095Y-92280714D01*
X88320952Y-92280714D01*
X88416190Y-92328333D01*
X88463809Y-92375952D01*
X88511428Y-92471190D01*
X88511428Y-92756904D01*
X88463809Y-92852142D01*
X88416190Y-92899761D01*
X88320952Y-92947380D01*
X88178095Y-92947380D01*
X88844761Y-92947380D02*
X89368571Y-92280714D01*
X88844761Y-92280714D02*
X89368571Y-92947380D01*
X89749523Y-92947380D02*
X89749523Y-92280714D01*
X89749523Y-91947380D02*
X89701904Y-91995000D01*
X89749523Y-92042619D01*
X89797142Y-91995000D01*
X89749523Y-91947380D01*
X89749523Y-92042619D01*
X90225714Y-92947380D02*
X90225714Y-92280714D01*
X90225714Y-92375952D02*
X90273333Y-92328333D01*
X90368571Y-92280714D01*
X90511428Y-92280714D01*
X90606666Y-92328333D01*
X90654285Y-92423571D01*
X90654285Y-92947380D01*
X90654285Y-92423571D02*
X90701904Y-92328333D01*
X90797142Y-92280714D01*
X90940000Y-92280714D01*
X91035238Y-92328333D01*
X91082857Y-92423571D01*
X91082857Y-92947380D01*
X91559047Y-92947380D02*
X91559047Y-92280714D01*
X91559047Y-91947380D02*
X91511428Y-91995000D01*
X91559047Y-92042619D01*
X91606666Y-91995000D01*
X91559047Y-91947380D01*
X91559047Y-92042619D01*
X91892380Y-92280714D02*
X92273333Y-92280714D01*
X92035238Y-91947380D02*
X92035238Y-92804523D01*
X92082857Y-92899761D01*
X92178095Y-92947380D01*
X92273333Y-92947380D01*
X92511428Y-92280714D02*
X92749523Y-92947380D01*
X92987619Y-92280714D02*
X92749523Y-92947380D01*
X92654285Y-93185476D01*
X92606666Y-93233095D01*
X92511428Y-93280714D01*
X94082857Y-92899761D02*
X94225714Y-92947380D01*
X94463809Y-92947380D01*
X94559047Y-92899761D01*
X94606666Y-92852142D01*
X94654285Y-92756904D01*
X94654285Y-92661666D01*
X94606666Y-92566428D01*
X94559047Y-92518809D01*
X94463809Y-92471190D01*
X94273333Y-92423571D01*
X94178095Y-92375952D01*
X94130476Y-92328333D01*
X94082857Y-92233095D01*
X94082857Y-92137857D01*
X94130476Y-92042619D01*
X94178095Y-91995000D01*
X94273333Y-91947380D01*
X94511428Y-91947380D01*
X94654285Y-91995000D01*
X95463809Y-92899761D02*
X95368571Y-92947380D01*
X95178095Y-92947380D01*
X95082857Y-92899761D01*
X95035238Y-92804523D01*
X95035238Y-92423571D01*
X95082857Y-92328333D01*
X95178095Y-92280714D01*
X95368571Y-92280714D01*
X95463809Y-92328333D01*
X95511428Y-92423571D01*
X95511428Y-92518809D01*
X95035238Y-92614047D01*
X95940000Y-92280714D02*
X95940000Y-92947380D01*
X95940000Y-92375952D02*
X95987619Y-92328333D01*
X96082857Y-92280714D01*
X96225714Y-92280714D01*
X96320952Y-92328333D01*
X96368571Y-92423571D01*
X96368571Y-92947380D01*
X96797142Y-92899761D02*
X96892380Y-92947380D01*
X97082857Y-92947380D01*
X97178095Y-92899761D01*
X97225714Y-92804523D01*
X97225714Y-92756904D01*
X97178095Y-92661666D01*
X97082857Y-92614047D01*
X96940000Y-92614047D01*
X96844761Y-92566428D01*
X96797142Y-92471190D01*
X96797142Y-92423571D01*
X96844761Y-92328333D01*
X96940000Y-92280714D01*
X97082857Y-92280714D01*
X97178095Y-92328333D01*
X97797142Y-92947380D02*
X97701904Y-92899761D01*
X97654285Y-92852142D01*
X97606666Y-92756904D01*
X97606666Y-92471190D01*
X97654285Y-92375952D01*
X97701904Y-92328333D01*
X97797142Y-92280714D01*
X97940000Y-92280714D01*
X98035238Y-92328333D01*
X98082857Y-92375952D01*
X98130476Y-92471190D01*
X98130476Y-92756904D01*
X98082857Y-92852142D01*
X98035238Y-92899761D01*
X97940000Y-92947380D01*
X97797142Y-92947380D01*
X98559047Y-92947380D02*
X98559047Y-92280714D01*
X98559047Y-92471190D02*
X98606666Y-92375952D01*
X98654285Y-92328333D01*
X98749523Y-92280714D01*
X98844761Y-92280714D01*
X85940000Y-93742619D02*
X85987619Y-93695000D01*
X86082857Y-93647380D01*
X86320952Y-93647380D01*
X86416190Y-93695000D01*
X86463809Y-93742619D01*
X86511428Y-93837857D01*
X86511428Y-93933095D01*
X86463809Y-94075952D01*
X85892380Y-94647380D01*
X86511428Y-94647380D01*
X87130476Y-93647380D02*
X87225714Y-93647380D01*
X87320952Y-93695000D01*
X87368571Y-93742619D01*
X87416190Y-93837857D01*
X87463809Y-94028333D01*
X87463809Y-94266428D01*
X87416190Y-94456904D01*
X87368571Y-94552142D01*
X87320952Y-94599761D01*
X87225714Y-94647380D01*
X87130476Y-94647380D01*
X87035238Y-94599761D01*
X86987619Y-94552142D01*
X86940000Y-94456904D01*
X86892380Y-94266428D01*
X86892380Y-94028333D01*
X86940000Y-93837857D01*
X86987619Y-93742619D01*
X87035238Y-93695000D01*
X87130476Y-93647380D01*
X87844761Y-93742619D02*
X87892380Y-93695000D01*
X87987619Y-93647380D01*
X88225714Y-93647380D01*
X88320952Y-93695000D01*
X88368571Y-93742619D01*
X88416190Y-93837857D01*
X88416190Y-93933095D01*
X88368571Y-94075952D01*
X87797142Y-94647380D01*
X88416190Y-94647380D01*
X89035238Y-93647380D02*
X89130476Y-93647380D01*
X89225714Y-93695000D01*
X89273333Y-93742619D01*
X89320952Y-93837857D01*
X89368571Y-94028333D01*
X89368571Y-94266428D01*
X89320952Y-94456904D01*
X89273333Y-94552142D01*
X89225714Y-94599761D01*
X89130476Y-94647380D01*
X89035238Y-94647380D01*
X88940000Y-94599761D01*
X88892380Y-94552142D01*
X88844761Y-94456904D01*
X88797142Y-94266428D01*
X88797142Y-94028333D01*
X88844761Y-93837857D01*
X88892380Y-93742619D01*
X88940000Y-93695000D01*
X89035238Y-93647380D01*
X89797142Y-94266428D02*
X90559047Y-94266428D01*
X90987619Y-93742619D02*
X91035238Y-93695000D01*
X91130476Y-93647380D01*
X91368571Y-93647380D01*
X91463809Y-93695000D01*
X91511428Y-93742619D01*
X91559047Y-93837857D01*
X91559047Y-93933095D01*
X91511428Y-94075952D01*
X90940000Y-94647380D01*
X91559047Y-94647380D01*
X92178095Y-93647380D02*
X92273333Y-93647380D01*
X92368571Y-93695000D01*
X92416190Y-93742619D01*
X92463809Y-93837857D01*
X92511428Y-94028333D01*
X92511428Y-94266428D01*
X92463809Y-94456904D01*
X92416190Y-94552142D01*
X92368571Y-94599761D01*
X92273333Y-94647380D01*
X92178095Y-94647380D01*
X92082857Y-94599761D01*
X92035238Y-94552142D01*
X91987619Y-94456904D01*
X91940000Y-94266428D01*
X91940000Y-94028333D01*
X91987619Y-93837857D01*
X92035238Y-93742619D01*
X92082857Y-93695000D01*
X92178095Y-93647380D01*
X92892380Y-93742619D02*
X92940000Y-93695000D01*
X93035238Y-93647380D01*
X93273333Y-93647380D01*
X93368571Y-93695000D01*
X93416190Y-93742619D01*
X93463809Y-93837857D01*
X93463809Y-93933095D01*
X93416190Y-94075952D01*
X92844761Y-94647380D01*
X93463809Y-94647380D01*
X94416190Y-94647380D02*
X93844761Y-94647380D01*
X94130476Y-94647380D02*
X94130476Y-93647380D01*
X94035238Y-93790238D01*
X93940000Y-93885476D01*
X93844761Y-93933095D01*
X95559047Y-94361666D02*
X96035238Y-94361666D01*
X95463809Y-94647380D02*
X95797142Y-93647380D01*
X96130476Y-94647380D01*
X96463809Y-94123571D02*
X96797142Y-94123571D01*
X96940000Y-94647380D02*
X96463809Y-94647380D01*
X96463809Y-93647380D01*
X96940000Y-93647380D01*
D11*
%TO.C,RV1*%
X102245000Y-78300000D02*
X107315000Y-78300000D01*
X102245000Y-88070000D02*
X107315000Y-88070000D01*
X107315000Y-88070000D02*
X107315000Y-78300000D01*
X102245000Y-88070000D02*
X102245000Y-78300000D01*
%TO.C,R2*%
X92610000Y-87725000D02*
X92940000Y-87725000D01*
X92610000Y-81185000D02*
X92610000Y-87725000D01*
X92940000Y-81185000D02*
X92610000Y-81185000D01*
X95350000Y-87725000D02*
X95020000Y-87725000D01*
X95350000Y-81185000D02*
X95350000Y-87725000D01*
X95020000Y-81185000D02*
X95350000Y-81185000D01*
%TO.C,R1*%
X97690000Y-87725000D02*
X98020000Y-87725000D01*
X97690000Y-81185000D02*
X97690000Y-87725000D01*
X98020000Y-81185000D02*
X97690000Y-81185000D01*
X100430000Y-87725000D02*
X100100000Y-87725000D01*
X100430000Y-81185000D02*
X100430000Y-87725000D01*
X100100000Y-81185000D02*
X100430000Y-81185000D01*
%TO.C,J1*%
X77410000Y-87055000D02*
X80070000Y-87055000D01*
X77410000Y-81915000D02*
X77410000Y-87055000D01*
X80070000Y-81915000D02*
X80070000Y-87055000D01*
X77410000Y-81915000D02*
X80070000Y-81915000D01*
X77410000Y-80645000D02*
X77410000Y-79315000D01*
X77410000Y-79315000D02*
X78740000Y-79315000D01*
%TO.C,D2*%
X95216000Y-73878000D02*
X95060000Y-73878000D01*
X92900000Y-73878000D02*
X92744000Y-73878000D01*
X92900163Y-76479130D02*
G75*
G02*
X92900000Y-74397039I1079837J1041130D01*
G01*
X95059837Y-76479130D02*
G75*
G03*
X95060000Y-74397039I-1079837J1041130D01*
G01*
X92901392Y-77110335D02*
G75*
G02*
X92744484Y-73878000I1078608J1672335D01*
G01*
X95058608Y-77110335D02*
G75*
G03*
X95215516Y-73878000I-1078608J1672335D01*
G01*
D12*
%TO.C,U1*%
X89281000Y-76073000D02*
X83439000Y-76073000D01*
X83439000Y-76073000D02*
X83439000Y-77466146D01*
X83439000Y-87757000D02*
X89281000Y-87757000D01*
X89281000Y-87757000D02*
X89281000Y-86794550D01*
X89281000Y-84655450D02*
X89281000Y-83823854D01*
X89281000Y-82546146D02*
X89281000Y-81283854D01*
X89281000Y-80006146D02*
X89281000Y-78743854D01*
X89281000Y-77466146D02*
X89281000Y-76073000D01*
X83439000Y-78743854D02*
X83439000Y-80006146D01*
X83439000Y-81283854D02*
X83439000Y-82546146D01*
X83439000Y-83823854D02*
X83439000Y-85086146D01*
X83439000Y-86363854D02*
X83439000Y-87757000D01*
D11*
%TO.C,D1*%
X97824000Y-77125000D02*
X97980000Y-77125000D01*
X100140000Y-77125000D02*
X100296000Y-77125000D01*
X100139837Y-74523870D02*
G75*
G02*
X100140000Y-76605961I-1079837J-1041130D01*
G01*
X97980163Y-74523870D02*
G75*
G03*
X97980000Y-76605961I1079837J-1041130D01*
G01*
X100138608Y-73892665D02*
G75*
G02*
X100295516Y-77125000I-1078608J-1672335D01*
G01*
X97981392Y-73892665D02*
G75*
G03*
X97824484Y-77125000I1078608J-1672335D01*
G01*
%TO.C,RV1*%
D13*
X109037380Y-79970238D02*
X108561190Y-80303571D01*
X109037380Y-80541666D02*
X108037380Y-80541666D01*
X108037380Y-80160714D01*
X108085000Y-80065476D01*
X108132619Y-80017857D01*
X108227857Y-79970238D01*
X108370714Y-79970238D01*
X108465952Y-80017857D01*
X108513571Y-80065476D01*
X108561190Y-80160714D01*
X108561190Y-80541666D01*
X108037380Y-79684523D02*
X109037380Y-79351190D01*
X108037380Y-79017857D01*
X109037380Y-78160714D02*
X109037380Y-78732142D01*
X109037380Y-78446428D02*
X108037380Y-78446428D01*
X108180238Y-78541666D01*
X108275476Y-78636904D01*
X108323095Y-78732142D01*
%TO.C,R2*%
X93813333Y-90622380D02*
X93480000Y-90146190D01*
X93241904Y-90622380D02*
X93241904Y-89622380D01*
X93622857Y-89622380D01*
X93718095Y-89670000D01*
X93765714Y-89717619D01*
X93813333Y-89812857D01*
X93813333Y-89955714D01*
X93765714Y-90050952D01*
X93718095Y-90098571D01*
X93622857Y-90146190D01*
X93241904Y-90146190D01*
X94194285Y-89717619D02*
X94241904Y-89670000D01*
X94337142Y-89622380D01*
X94575238Y-89622380D01*
X94670476Y-89670000D01*
X94718095Y-89717619D01*
X94765714Y-89812857D01*
X94765714Y-89908095D01*
X94718095Y-90050952D01*
X94146666Y-90622380D01*
X94765714Y-90622380D01*
X94432380Y-85685238D02*
X94432380Y-86256666D01*
X94432380Y-85970952D02*
X93432380Y-85970952D01*
X93575238Y-86066190D01*
X93670476Y-86161428D01*
X93718095Y-86256666D01*
X93432380Y-85066190D02*
X93432380Y-84970952D01*
X93480000Y-84875714D01*
X93527619Y-84828095D01*
X93622857Y-84780476D01*
X93813333Y-84732857D01*
X94051428Y-84732857D01*
X94241904Y-84780476D01*
X94337142Y-84828095D01*
X94384761Y-84875714D01*
X94432380Y-84970952D01*
X94432380Y-85066190D01*
X94384761Y-85161428D01*
X94337142Y-85209047D01*
X94241904Y-85256666D01*
X94051428Y-85304285D01*
X93813333Y-85304285D01*
X93622857Y-85256666D01*
X93527619Y-85209047D01*
X93480000Y-85161428D01*
X93432380Y-85066190D01*
X94432380Y-84304285D02*
X93432380Y-84304285D01*
X94051428Y-84209047D02*
X94432380Y-83923333D01*
X93765714Y-83923333D02*
X94146666Y-84304285D01*
%TO.C,R1*%
X98893333Y-90622380D02*
X98560000Y-90146190D01*
X98321904Y-90622380D02*
X98321904Y-89622380D01*
X98702857Y-89622380D01*
X98798095Y-89670000D01*
X98845714Y-89717619D01*
X98893333Y-89812857D01*
X98893333Y-89955714D01*
X98845714Y-90050952D01*
X98798095Y-90098571D01*
X98702857Y-90146190D01*
X98321904Y-90146190D01*
X99845714Y-90622380D02*
X99274285Y-90622380D01*
X99560000Y-90622380D02*
X99560000Y-89622380D01*
X99464761Y-89765238D01*
X99369523Y-89860476D01*
X99274285Y-89908095D01*
X99512380Y-85209047D02*
X99512380Y-85780476D01*
X99512380Y-85494761D02*
X98512380Y-85494761D01*
X98655238Y-85590000D01*
X98750476Y-85685238D01*
X98798095Y-85780476D01*
X99512380Y-84780476D02*
X98512380Y-84780476D01*
X99131428Y-84685238D02*
X99512380Y-84399523D01*
X98845714Y-84399523D02*
X99226666Y-84780476D01*
%TO.C,J1*%
X75017380Y-84153333D02*
X75731666Y-84153333D01*
X75874523Y-84200952D01*
X75969761Y-84296190D01*
X76017380Y-84439047D01*
X76017380Y-84534285D01*
X76017380Y-83153333D02*
X76017380Y-83724761D01*
X76017380Y-83439047D02*
X75017380Y-83439047D01*
X75160238Y-83534285D01*
X75255476Y-83629523D01*
X75303095Y-83724761D01*
%TO.C,D2*%
X93241904Y-72842380D02*
X93241904Y-71842380D01*
X93480000Y-71842380D01*
X93622857Y-71890000D01*
X93718095Y-71985238D01*
X93765714Y-72080476D01*
X93813333Y-72270952D01*
X93813333Y-72413809D01*
X93765714Y-72604285D01*
X93718095Y-72699523D01*
X93622857Y-72794761D01*
X93480000Y-72842380D01*
X93241904Y-72842380D01*
X94194285Y-71937619D02*
X94241904Y-71890000D01*
X94337142Y-71842380D01*
X94575238Y-71842380D01*
X94670476Y-71890000D01*
X94718095Y-71937619D01*
X94765714Y-72032857D01*
X94765714Y-72128095D01*
X94718095Y-72270952D01*
X94146666Y-72842380D01*
X94765714Y-72842380D01*
%TO.C,U1*%
X84836095Y-77557380D02*
X84836095Y-78366904D01*
X84883714Y-78462142D01*
X84931333Y-78509761D01*
X85026571Y-78557380D01*
X85217047Y-78557380D01*
X85312285Y-78509761D01*
X85359904Y-78462142D01*
X85407523Y-78366904D01*
X85407523Y-77557380D01*
X86407523Y-78557380D02*
X85836095Y-78557380D01*
X86121809Y-78557380D02*
X86121809Y-77557380D01*
X86026571Y-77700238D01*
X85931333Y-77795476D01*
X85836095Y-77843095D01*
X84669523Y-83002380D02*
X84193333Y-83002380D01*
X84193333Y-82002380D01*
X85002857Y-83002380D02*
X85002857Y-82002380D01*
X85336190Y-82716666D01*
X85669523Y-82002380D01*
X85669523Y-83002380D01*
X86050476Y-82002380D02*
X86669523Y-82002380D01*
X86336190Y-82383333D01*
X86479047Y-82383333D01*
X86574285Y-82430952D01*
X86621904Y-82478571D01*
X86669523Y-82573809D01*
X86669523Y-82811904D01*
X86621904Y-82907142D01*
X86574285Y-82954761D01*
X86479047Y-83002380D01*
X86193333Y-83002380D01*
X86098095Y-82954761D01*
X86050476Y-82907142D01*
X87574285Y-82002380D02*
X87098095Y-82002380D01*
X87050476Y-82478571D01*
X87098095Y-82430952D01*
X87193333Y-82383333D01*
X87431428Y-82383333D01*
X87526666Y-82430952D01*
X87574285Y-82478571D01*
X87621904Y-82573809D01*
X87621904Y-82811904D01*
X87574285Y-82907142D01*
X87526666Y-82954761D01*
X87431428Y-83002380D01*
X87193333Y-83002380D01*
X87098095Y-82954761D01*
X87050476Y-82907142D01*
X88193333Y-82430952D02*
X88098095Y-82383333D01*
X88050476Y-82335714D01*
X88002857Y-82240476D01*
X88002857Y-82192857D01*
X88050476Y-82097619D01*
X88098095Y-82050000D01*
X88193333Y-82002380D01*
X88383809Y-82002380D01*
X88479047Y-82050000D01*
X88526666Y-82097619D01*
X88574285Y-82192857D01*
X88574285Y-82240476D01*
X88526666Y-82335714D01*
X88479047Y-82383333D01*
X88383809Y-82430952D01*
X88193333Y-82430952D01*
X88098095Y-82478571D01*
X88050476Y-82526190D01*
X88002857Y-82621428D01*
X88002857Y-82811904D01*
X88050476Y-82907142D01*
X88098095Y-82954761D01*
X88193333Y-83002380D01*
X88383809Y-83002380D01*
X88479047Y-82954761D01*
X88526666Y-82907142D01*
X88574285Y-82811904D01*
X88574285Y-82621428D01*
X88526666Y-82526190D01*
X88479047Y-82478571D01*
X88383809Y-82430952D01*
X90170000Y-86701380D02*
X90170000Y-86939476D01*
X89931904Y-86844238D02*
X90170000Y-86939476D01*
X90408095Y-86844238D01*
X90027142Y-87129952D02*
X90170000Y-86939476D01*
X90312857Y-87129952D01*
X90170000Y-86701380D02*
X90170000Y-86939476D01*
X89931904Y-86844238D02*
X90170000Y-86939476D01*
X90408095Y-86844238D01*
X90027142Y-87129952D02*
X90170000Y-86939476D01*
X90312857Y-87129952D01*
%TO.C,D1*%
X98321904Y-72842380D02*
X98321904Y-71842380D01*
X98560000Y-71842380D01*
X98702857Y-71890000D01*
X98798095Y-71985238D01*
X98845714Y-72080476D01*
X98893333Y-72270952D01*
X98893333Y-72413809D01*
X98845714Y-72604285D01*
X98798095Y-72699523D01*
X98702857Y-72794761D01*
X98560000Y-72842380D01*
X98321904Y-72842380D01*
X99845714Y-72842380D02*
X99274285Y-72842380D01*
X99560000Y-72842380D02*
X99560000Y-71842380D01*
X99464761Y-71985238D01*
X99369523Y-72080476D01*
X99274285Y-72128095D01*
%TD*%
M02*
